<svg xmlns="http://www.w3.org/2000/svg" viewBox="0 0 321.74 354.58"><defs><style>.cls-1{fill:#092b49;}.cls-2{fill:#6ccaf2;}.cls-3{fill:#2967b1;}</style></defs><title>Asset 1</title><g id="Layer_2" data-name="Layer 2"><g id="Layer_1-2" data-name="Layer 1"><path class="cls-1" d="M161,0,321.74,278.58c-2.61,2.94-5.06,2.17-7.22,2.18-21.66.06-43.33-.18-65,.18-6.2.1-9.5-2.19-12.5-7.42Q180.32,174.7,123.23,76.09c-2-3.46-4-6.36-1.32-10.88C134,44.9,145.71,24.32,157.59,3.87A32.31,32.31,0,0,1,161,0Z"/><path class="cls-2" d="M62,95.66c1.86-6.16,1.31-12.52,1.68-18.82,1.54-26.63,13.17-48.18,33.54-66.21,1.75,3.4.13,5.74-.51,8C92.72,32.79,90.43,47,91,61.87c.8,21.78,9.64,40.6,20,58.91,11.15,19.73,25,37.66,37.82,56.32,14.13,20.63,27.18,41.81,36.58,65.11,5.81,14.38,9.35,29.44,9.46,44.66.18,25-9.27,46.69-27,64.55a13.68,13.68,0,0,1-3.15,2.43c-2.64,1.42-4.52.85-4.95-2.39a12.07,12.07,0,0,1,1.82-8.59c8.57-27.7.08-52.78-12.74-76.74-15.87-29.68-38-55.23-56-83.54a281.43,281.43,0,0,1-25.51-49.53C62.59,120.94,59.8,108.69,62,95.66Z"/><path class="cls-3" d="M62,95.66a24,24,0,0,1,1.75,4.59c4.8,29.5,17.58,55.69,33.84,80.27,12.65,19.13,26.13,37.7,39.19,56.55,9.48,13.69,18.27,27.77,24.58,43.26,7.56,18.52,8.31,37.46,3.49,56.71-.53,2.12-.6,4.78-3.25,5.83,4.45-25.13-4.14-46.45-19.11-66-13-16.95-28-32.08-42-48.16-14.67-16.89-28.38-34.42-37.68-55-8.9-19.68-12.28-40-7.12-61.29C57.05,106.59,59.49,101.12,62,95.66Z"/><path class="cls-1" d="M92.87,280.46H0c1.39-7,37.53-70.73,46.11-81C61.51,226.14,76.68,252.42,92.87,280.46Z"/></g></g></svg>