<svg xmlns="http://www.w3.org/2000/svg" viewBox="0 0 100 100"><defs><style>.cls-1{fill:#0f3c60;}.cls-2{fill:#ed1c24;}.cls-3{fill:#1b75bc;}</style></defs><title>roshan-logo</title><g id="Layer_2" data-name="Layer 2"><g id="Layer_1-2" data-name="Layer 1"><path class="cls-1" d="M86.78,32.26A32.39,32.39,0,0,1,70.17,60.43,31.25,31.25,0,0,1,64.6,62.9,124.78,124.78,0,0,0,51,55.59,152,152,0,0,0,10.88,43.47h-.07a82.13,82.13,0,0,0-9.56-.86l52.82-1a9.39,9.39,0,0,0,0-18.77H33.16L10.63,0H54.52A32.35,32.35,0,0,1,86.78,32.26Z"/><circle class="cls-2" cx="22.04" cy="87.1" r="12.9"/><path class="cls-3" d="M100,100H73.14c-.16-.49-.29-.9-.37-1.09A76.12,76.12,0,0,0,55,73.08a106,106,0,0,0-11.66-9.85A124.71,124.71,0,0,0,30,54.8a131.09,131.09,0,0,0-14.89-7Q8.15,45,.91,42.93c-.31-.08-.61-.2-.91-.3l1.46,0a81.41,81.41,0,0,1,9.52.86h.07A150.74,150.74,0,0,1,51,55.59,123.92,123.92,0,0,1,64.53,62.9q2.79,1.74,5.48,3.66a106.62,106.62,0,0,1,17.34,15,83.76,83.76,0,0,1,11.93,17Z"/></g></g></svg>